<?xml version="1.0" encoding="UTF-8" standalone="no"?>
<!DOCTYPE svg PUBLIC "-//W3C//DTD SVG 1.1//EN"
 "http://www.w3.org/Graphics/SVG/1.1/DTD/svg11.dtd">
<!-- Generated by graphviz version 2.40.1 (20161225.0304)
 -->
<!-- Title: dependencies Pages: 1 -->
<svg width="504pt" height="211pt"
 viewBox="0.00 0.00 504.00 211.00" xmlns="http://www.w3.org/2000/svg" xmlns:xlink="http://www.w3.org/1999/xlink">
<g id="graph0" class="graph" transform="scale(1 1) rotate(0) translate(4 207)">
<title>dependencies</title>
<polygon fill="#ffffff" stroke="transparent" points="-4,4 -4,-207 500,-207 500,4 -4,4"/>
<text text-anchor="start" x="227.0091" y="-42.4" font-family="sans-serif" font-weight="bold" font-size="14.00" fill="#000000">Legend</text>
<polygon fill="#ffffb3" stroke="transparent" points="14,-10 14,-30 34,-30 34,-10 14,-10"/>
<text text-anchor="start" x="37.629" y="-15.4" font-family="sans-serif" font-size="14.00" fill="#000000"> &#160;Declarations</text>
<polygon fill="#8dd3c7" stroke="transparent" points="127,-10 127,-30 147,-30 147,-10 127,-10"/>
<text text-anchor="start" x="150.7251" y="-15.4" font-family="sans-serif" font-size="14.00" fill="#000000"> &#160;Module</text>
<polygon fill="#80b1d3" stroke="transparent" points="213,-10 213,-30 233,-30 233,-10 213,-10"/>
<text text-anchor="start" x="236.7812" y="-15.4" font-family="sans-serif" font-size="14.00" fill="#000000"> &#160;Bootstrap</text>
<polygon fill="#fdb462" stroke="transparent" points="310,-10 310,-30 330,-30 330,-10 310,-10"/>
<text text-anchor="start" x="333.6732" y="-15.4" font-family="sans-serif" font-size="14.00" fill="#000000"> &#160;Providers</text>
<polygon fill="#fb8072" stroke="transparent" points="406,-10 406,-30 426,-30 426,-10 406,-10"/>
<text text-anchor="start" x="429.7258" y="-15.4" font-family="sans-serif" font-size="14.00" fill="#000000"> &#160;Exports</text>
<g id="clust1" class="cluster">
<title>cluster_MaterialModule</title>
<polygon fill="none" stroke="#000000" stroke-dasharray="1,5" points="187,-70 187,-195 309,-195 309,-70 187,-70"/>
</g>
<g id="clust3" class="cluster">
<title>cluster_MaterialModule_imports</title>
<polygon fill="none" stroke="#000000" points="208,-78 208,-130 288,-130 288,-78 208,-78"/>
</g>
<!-- Material -->
<g id="node1" class="node">
<title>Material</title>
<polygon fill="#8dd3c7" stroke="#000000" points="279.9222,-122 276.9222,-126 255.9222,-126 252.9222,-122 216.0778,-122 216.0778,-86 279.9222,-86 279.9222,-122"/>
<text text-anchor="middle" x="248" y="-99.8" font-family="Times,serif" font-size="14.00" fill="#000000">Material</text>
</g>
<!-- MaterialModule -->
<g id="node2" class="node">
<title>MaterialModule</title>
<polygon fill="#8dd3c7" stroke="#000000" points="301.4706,-187 298.4706,-191 277.4706,-191 274.4706,-187 194.5294,-187 194.5294,-151 301.4706,-151 301.4706,-187"/>
<text text-anchor="middle" x="248" y="-164.8" font-family="Times,serif" font-size="14.00" fill="#000000">MaterialModule</text>
</g>
<!-- Material&#45;&gt;MaterialModule -->
<g id="edge1" class="edge">
<title>Material&#45;&gt;MaterialModule</title>
<path fill="none" stroke="#000000" d="M219.6275,-122.1061C219.6275,-122.1061 219.6275,-140.991 219.6275,-140.991"/>
<polygon fill="#000000" stroke="#000000" points="216.1276,-140.9909 219.6275,-150.991 223.1276,-140.991 216.1276,-140.9909"/>
</g>
<!-- Material&#45;&gt;MaterialModule -->
<g id="edge2" class="edge">
<title>Material&#45;&gt;MaterialModule</title>
<path fill="none" stroke="#000000" d="M222.9655,-122.1061C222.9655,-122.1061 222.9655,-140.991 222.9655,-140.991"/>
<polygon fill="#000000" stroke="#000000" points="219.4656,-140.9909 222.9655,-150.991 226.4656,-140.991 219.4656,-140.9909"/>
</g>
<!-- Material&#45;&gt;MaterialModule -->
<g id="edge3" class="edge">
<title>Material&#45;&gt;MaterialModule</title>
<path fill="none" stroke="#000000" d="M226.3034,-122.1061C226.3034,-122.1061 226.3034,-140.991 226.3034,-140.991"/>
<polygon fill="#000000" stroke="#000000" points="222.8035,-140.9909 226.3034,-150.991 229.8035,-140.991 222.8035,-140.9909"/>
</g>
<!-- Material&#45;&gt;MaterialModule -->
<g id="edge4" class="edge">
<title>Material&#45;&gt;MaterialModule</title>
<path fill="none" stroke="#000000" d="M229.6413,-122.1061C229.6413,-122.1061 229.6413,-140.991 229.6413,-140.991"/>
<polygon fill="#000000" stroke="#000000" points="226.1414,-140.9909 229.6413,-150.991 233.1414,-140.991 226.1414,-140.9909"/>
</g>
<!-- Material&#45;&gt;MaterialModule -->
<g id="edge5" class="edge">
<title>Material&#45;&gt;MaterialModule</title>
<path fill="none" stroke="#000000" d="M232.9793,-122.1061C232.9793,-122.1061 232.9793,-140.991 232.9793,-140.991"/>
<polygon fill="#000000" stroke="#000000" points="229.4794,-140.9909 232.9793,-150.991 236.4794,-140.991 229.4794,-140.9909"/>
</g>
<!-- Material&#45;&gt;MaterialModule -->
<g id="edge6" class="edge">
<title>Material&#45;&gt;MaterialModule</title>
<path fill="none" stroke="#000000" d="M236.3172,-122.1061C236.3172,-122.1061 236.3172,-140.991 236.3172,-140.991"/>
<polygon fill="#000000" stroke="#000000" points="232.8173,-140.9909 236.3172,-150.991 239.8173,-140.991 232.8173,-140.9909"/>
</g>
<!-- Material&#45;&gt;MaterialModule -->
<g id="edge7" class="edge">
<title>Material&#45;&gt;MaterialModule</title>
<path fill="none" stroke="#000000" d="M239.6552,-122.1061C239.6552,-122.1061 239.6552,-140.991 239.6552,-140.991"/>
<polygon fill="#000000" stroke="#000000" points="236.1553,-140.9909 239.6552,-150.991 243.1553,-140.991 236.1553,-140.9909"/>
</g>
<!-- Material&#45;&gt;MaterialModule -->
<g id="edge8" class="edge">
<title>Material&#45;&gt;MaterialModule</title>
<path fill="none" stroke="#000000" d="M242.9931,-122.1061C242.9931,-122.1061 242.9931,-140.991 242.9931,-140.991"/>
<polygon fill="#000000" stroke="#000000" points="239.4932,-140.9909 242.9931,-150.991 246.4932,-140.991 239.4932,-140.9909"/>
</g>
<!-- Material&#45;&gt;MaterialModule -->
<g id="edge9" class="edge">
<title>Material&#45;&gt;MaterialModule</title>
<path fill="none" stroke="#000000" d="M246.331,-122.1061C246.331,-122.1061 246.331,-140.991 246.331,-140.991"/>
<polygon fill="#000000" stroke="#000000" points="242.8311,-140.9909 246.331,-150.991 249.8311,-140.991 242.8311,-140.9909"/>
</g>
<!-- Material&#45;&gt;MaterialModule -->
<g id="edge10" class="edge">
<title>Material&#45;&gt;MaterialModule</title>
<path fill="none" stroke="#000000" d="M249.669,-122.1061C249.669,-122.1061 249.669,-140.991 249.669,-140.991"/>
<polygon fill="#000000" stroke="#000000" points="246.1691,-140.9909 249.669,-150.991 253.1691,-140.991 246.1691,-140.9909"/>
</g>
<!-- Material&#45;&gt;MaterialModule -->
<g id="edge11" class="edge">
<title>Material&#45;&gt;MaterialModule</title>
<path fill="none" stroke="#000000" d="M253.0069,-122.1061C253.0069,-122.1061 253.0069,-140.991 253.0069,-140.991"/>
<polygon fill="#000000" stroke="#000000" points="249.507,-140.9909 253.0069,-150.991 256.507,-140.991 249.507,-140.9909"/>
</g>
<!-- Material&#45;&gt;MaterialModule -->
<g id="edge12" class="edge">
<title>Material&#45;&gt;MaterialModule</title>
<path fill="none" stroke="#000000" d="M256.3448,-122.1061C256.3448,-122.1061 256.3448,-140.991 256.3448,-140.991"/>
<polygon fill="#000000" stroke="#000000" points="252.8449,-140.9909 256.3448,-150.991 259.8449,-140.991 252.8449,-140.9909"/>
</g>
<!-- Material&#45;&gt;MaterialModule -->
<g id="edge13" class="edge">
<title>Material&#45;&gt;MaterialModule</title>
<path fill="none" stroke="#000000" d="M259.6828,-122.1061C259.6828,-122.1061 259.6828,-140.991 259.6828,-140.991"/>
<polygon fill="#000000" stroke="#000000" points="256.1829,-140.9909 259.6828,-150.991 263.1829,-140.991 256.1829,-140.9909"/>
</g>
<!-- Material&#45;&gt;MaterialModule -->
<g id="edge14" class="edge">
<title>Material&#45;&gt;MaterialModule</title>
<path fill="none" stroke="#000000" d="M263.0207,-122.1061C263.0207,-122.1061 263.0207,-140.991 263.0207,-140.991"/>
<polygon fill="#000000" stroke="#000000" points="259.5208,-140.9909 263.0207,-150.991 266.5208,-140.991 259.5208,-140.9909"/>
</g>
<!-- Material&#45;&gt;MaterialModule -->
<g id="edge15" class="edge">
<title>Material&#45;&gt;MaterialModule</title>
<path fill="none" stroke="#000000" d="M266.3587,-122.1061C266.3587,-122.1061 266.3587,-140.991 266.3587,-140.991"/>
<polygon fill="#000000" stroke="#000000" points="262.8588,-140.9909 266.3587,-150.991 269.8588,-140.991 262.8588,-140.9909"/>
</g>
<!-- Material&#45;&gt;MaterialModule -->
<g id="edge16" class="edge">
<title>Material&#45;&gt;MaterialModule</title>
<path fill="none" stroke="#000000" d="M269.6966,-122.1061C269.6966,-122.1061 269.6966,-140.991 269.6966,-140.991"/>
<polygon fill="#000000" stroke="#000000" points="266.1967,-140.9909 269.6966,-150.991 273.1967,-140.991 266.1967,-140.9909"/>
</g>
<!-- Material&#45;&gt;MaterialModule -->
<g id="edge17" class="edge">
<title>Material&#45;&gt;MaterialModule</title>
<path fill="none" stroke="#000000" d="M273.0345,-122.1061C273.0345,-122.1061 273.0345,-140.991 273.0345,-140.991"/>
<polygon fill="#000000" stroke="#000000" points="269.5346,-140.9909 273.0345,-150.991 276.5346,-140.991 269.5346,-140.9909"/>
</g>
<!-- Material&#45;&gt;MaterialModule -->
<g id="edge18" class="edge">
<title>Material&#45;&gt;MaterialModule</title>
<path fill="none" stroke="#000000" d="M276.3725,-122.1061C276.3725,-122.1061 276.3725,-140.991 276.3725,-140.991"/>
<polygon fill="#000000" stroke="#000000" points="272.8726,-140.9909 276.3725,-150.991 279.8726,-140.991 272.8726,-140.9909"/>
</g>
</g>
</svg>
